<svg xmlns="http://www.w3.org/2000/svg" viewBox="0 0 179.32 38.14"><defs><style>.cls-1{fill:#c5292b;}.cls-2{fill:#fff;}.cls-3{fill:#1f1e21;}</style></defs><title>Asset 1</title><g id="Layer_2" data-name="Layer 2"><g id="Primer_plano" data-name="Primer plano"><path class="cls-1" d="M10,.12C4.58.12.2,5.22.2,11.53S4.58,22.93,10,22.93s9.79-5.11,9.79-11.4S15.39.12,10,.12Z"/><path class="cls-2" d="M3.16,17a11.21,11.21,0,0,1-1.38-5.45A11.2,11.2,0,0,1,3.16,6.07V17Z"/><path class="cls-2" d="M5.24,3.52A7.68,7.68,0,0,1,7,2.38V20.67a8,8,0,0,1-1.78-1.14v-16Z"/><path class="cls-2" d="M9.1,1.77a7.86,7.86,0,0,1,1.77,0v19.5a6.54,6.54,0,0,1-.89.06,8.65,8.65,0,0,1-.88,0V1.77Z"/><path class="cls-2" d="M13,2.38a7.8,7.8,0,0,1,1.78,1.14v16A8.16,8.16,0,0,1,13,20.67V2.38Z"/><path class="cls-2" d="M16.81,6.08a11.16,11.16,0,0,1,1.38,5.45A11.18,11.18,0,0,1,16.81,17V6.08Z"/><path class="cls-2" d="M14.73,2.54v.54A8.09,8.09,0,0,0,13,2V1.53a8.25,8.25,0,0,1,1.78,1Z"/><path class="cls-2" d="M10,.94a6.55,6.55,0,0,1,.89.05v.44a6.56,6.56,0,0,0-1.77,0V1A6.49,6.49,0,0,1,10,.94Z"/><path class="cls-2" d="M7,1.53V2A8.14,8.14,0,0,0,5.24,3.08V2.53A8.92,8.92,0,0,1,7,1.53Z"/><path class="cls-2" d="M1,11.53A11.78,11.78,0,0,1,3.16,4.64v.77a11.42,11.42,0,0,0-1.72,6.12,11.35,11.35,0,0,0,1.72,6.1v.77A11.72,11.72,0,0,1,1,11.53Z"/><path class="cls-2" d="M5.24,20.51V20A8.09,8.09,0,0,0,7,21v.48a8.49,8.49,0,0,1-1.78-1Z"/><path class="cls-2" d="M10,22.11a8.65,8.65,0,0,1-.88-.05v-.44a6.49,6.49,0,0,0,.88.05,6.55,6.55,0,0,0,.89-.05v.44a8.69,8.69,0,0,1-.89.05Z"/><path class="cls-2" d="M13,21.52V21A8.14,8.14,0,0,0,14.73,20v.55a8.25,8.25,0,0,1-1.78,1Z"/><path class="cls-2" d="M16.81,17.62a11.33,11.33,0,0,0,1.71-6.09,11.38,11.38,0,0,0-1.71-6.11V4.65A11.73,11.73,0,0,1,19,11.53a11.66,11.66,0,0,1-2.15,6.86v-.77Z"/><path class="cls-1" d="M19.51,21.76A2.86,2.86,0,0,1,20,21a2.71,2.71,0,0,1-.63-.38A2.8,2.8,0,0,0,19.92,19l-.05-3.62h-.05a11.88,11.88,0,0,1-1.34,3.18c-.17.25-.21.32-.3.46a2,2,0,0,0-.37,1.2,2.6,2.6,0,0,1-.73,0,1.85,1.85,0,0,1,0,.78c-1,0-1.24.67-2.37,1.26a9.75,9.75,0,0,1-1.42.63v.06c2.12-.07,3.06.28,4.24-.52a3.83,3.83,0,0,1,.3.65,2.81,2.81,0,0,1,.79-.44,1.67,1.67,0,0,0,1.31.44,1.49,1.49,0,0,0-.41-1.31Z"/><path class="cls-2" d="M19.69,21.05l-.86.29h0a.32.32,0,0,0,0-.16v0a.93.93,0,0,0,.38-.38l0,0h0a1.61,1.61,0,0,0,.5.28Z"/><path class="cls-2" d="M19.19,17.77a10.07,10.07,0,0,0,.62-2.09,18.3,18.3,0,0,1-1.35,5.2.63.63,0,0,0-.2,0,.77.77,0,0,1-.15-.34c-.3-1,.64-1.61,1.08-2.74Z"/><path class="cls-2" d="M17.29,20.43l.65.53h0l-.06,0a.41.41,0,0,0-.07.11h0a1.16,1.16,0,0,0-.52-.15,1,1,0,0,0,0-.55Z"/><path class="cls-2" d="M13.6,22.85l.82-.26c1.3-.47,1.76-1.43,2.74-1.38a1.51,1.51,0,0,1,.56.16h0a.44.44,0,0,0,0,.2h0a12.92,12.92,0,0,1-4.13,1.28Z"/><path class="cls-2" d="M17.9,22.8a1.25,1.25,0,0,0-.21-.5.88.88,0,0,0,.31-.42h0a.48.48,0,0,0,.2.07h0l-.31.85Z"/><path class="cls-2" d="M18.05,21.63a.33.33,0,0,1,0-.45.32.32,0,1,1,0,.45Z"/><path class="cls-2" d="M18.67,22.36c-.15-.17-.13-.23-.19-.45a.53.53,0,0,0,.23-.17l1,1.08a1.33,1.33,0,0,1-1-.46Z"/><path class="cls-1" d="M19.51,1.33a2.73,2.73,0,0,0,.46.79,3.11,3.11,0,0,0-.63.38,2.8,2.8,0,0,1,.58,1.57l-.05,3.62h-.05a11.68,11.68,0,0,0-1.34-3.17l-.3-.47a2,2,0,0,1-.37-1.2,3,3,0,0,0-.73,0,1.8,1.8,0,0,0,0-.77c-1,0-1.24-.68-2.37-1.27A11,11,0,0,0,13.28.21V.15c2.12.07,3.06-.27,4.24.52a3.5,3.5,0,0,0,.3-.65,2.58,2.58,0,0,0,.79.44A1.63,1.63,0,0,1,19.92,0a1.48,1.48,0,0,1-.41,1.3Z"/><path class="cls-2" d="M19.69,2.05c-.13-.06-.86-.3-.86-.3h0a.35.35,0,0,1,0,.17h0a.93.93,0,0,1,.38.38l0,0h0a1.43,1.43,0,0,1,.5-.28Z"/><path class="cls-2" d="M19.19,5.33a9.89,9.89,0,0,1,.62,2.09,18.29,18.29,0,0,0-1.35-5.21.63.63,0,0,1-.2,0,.77.77,0,0,0-.15.34c-.3,1,.64,1.62,1.08,2.75Z"/><path class="cls-2" d="M17.29,2.66l.65-.53h0l-.06,0a.61.61,0,0,1-.07-.1h0a1.37,1.37,0,0,1-.52.15,1,1,0,0,1,0,.54Z"/><path class="cls-2" d="M13.6.25l.82.25c1.3.47,1.76,1.44,2.74,1.38a1.34,1.34,0,0,0,.56-.16h0a.46.46,0,0,1,0-.2h0A13.19,13.19,0,0,0,13.6.25Z"/><path class="cls-2" d="M17.9.29a1.25,1.25,0,0,1-.21.5.93.93,0,0,1,.31.42h0a.36.36,0,0,1,.2-.06h0L17.9.29Z"/><path class="cls-2" d="M18.05,1.46a.34.34,0,0,0,0,.46.32.32,0,0,0,.45,0,.31.31,0,0,0,0-.45.33.33,0,0,0-.45,0Z"/><path class="cls-2" d="M18.67.74c-.15.16-.13.22-.19.45a.51.51,0,0,1,.23.16l1-1.08a1.34,1.34,0,0,0-1,.47Z"/><path class="cls-1" d="M.46,21.74A2.86,2.86,0,0,0,0,21a2.71,2.71,0,0,0,.63-.38A2.8,2.8,0,0,1,.05,19L.1,15.38h0a11.57,11.57,0,0,0,1.34,3.18c.17.25.21.32.3.47a1.92,1.92,0,0,1,.37,1.19,2.61,2.61,0,0,0,.73,0,2,2,0,0,0,0,.78c1,0,1.25.68,2.38,1.26a9,9,0,0,0,1.41.63v.06c-2.11-.07-3,.28-4.23-.52a3.19,3.19,0,0,0-.3.65,2.63,2.63,0,0,0-.8-.43A1.64,1.64,0,0,1,0,23.05a1.55,1.55,0,0,1,.42-1.31Z"/><path class="cls-2" d="M.28,21l.85.3h0a.49.49,0,0,1,.05-.16h0a1.16,1.16,0,0,1-.39-.39l0,0h0a1.53,1.53,0,0,1-.5.28Z"/><path class="cls-2" d="M.78,17.75a10.07,10.07,0,0,1-.62-2.09,17.89,17.89,0,0,0,1.35,5.2.63.63,0,0,1,.2,0,.77.77,0,0,0,.15-.34c.3-1-.64-1.61-1.08-2.74Z"/><path class="cls-2" d="M2.67,20.41,2,20.94H2l.05.05a.39.39,0,0,1,.08.1h0A1.16,1.16,0,0,1,2.68,21a1.09,1.09,0,0,1,0-.55Z"/><path class="cls-2" d="M6.37,22.83l-.82-.26c-1.3-.46-1.77-1.43-2.74-1.38a1.46,1.46,0,0,0-.56.16h0a.44.44,0,0,1,0,.2h0a13.07,13.07,0,0,0,4.14,1.28Z"/><path class="cls-2" d="M2.07,22.78a1.43,1.43,0,0,1,.2-.5.87.87,0,0,1-.3-.42H2a.7.7,0,0,1-.19.06h0l.31.85Z"/><path class="cls-2" d="M1.92,21.61a.33.33,0,0,0,0-.45.34.34,0,0,0-.46,0,.32.32,0,0,0,0,.45.31.31,0,0,0,.45,0Z"/><path class="cls-2" d="M1.3,22.34a.84.84,0,0,0,.19-.45.53.53,0,0,1-.23-.17l-1,1.08a1.3,1.3,0,0,0,1-.46Z"/><path class="cls-1" d="M.46,1.31A2.73,2.73,0,0,1,0,2.1a3.11,3.11,0,0,1,.63.38A2.82,2.82,0,0,0,.05,4.05L.1,7.67h0A11.38,11.38,0,0,1,1.49,4.5L1.79,4a2,2,0,0,0,.37-1.2,3.06,3.06,0,0,1,.73,0,1.94,1.94,0,0,1,0-.77c1,0,1.25-.68,2.38-1.26A9,9,0,0,1,6.68.2V.14c-2.11.06-3-.28-4.23.51A3,3,0,0,1,2.15,0a2.64,2.64,0,0,1-.8.44A1.6,1.6,0,0,0,0,0a1.52,1.52,0,0,0,.42,1.3Z"/><path class="cls-2" d="M.28,2c.13-.06.85-.3.85-.3h0a.55.55,0,0,0,.05.17h0a1.08,1.08,0,0,0-.39.38l0,0h0A1.53,1.53,0,0,0,.28,2Z"/><path class="cls-2" d="M.78,5.31A9.89,9.89,0,0,0,.16,7.4,17.81,17.81,0,0,1,1.51,2.2a.48.48,0,0,0,.2,0,.77.77,0,0,1,.15.34c.3,1-.64,1.62-1.08,2.75Z"/><path class="cls-2" d="M2.67,2.64,2,2.11H2l.05,0L2.16,2h0a1.37,1.37,0,0,0,.52.15,1,1,0,0,0,0,.54Z"/><path class="cls-2" d="M6.37.23,5.55.48C4.25,1,3.78,1.92,2.81,1.86a1.3,1.3,0,0,1-.56-.16h0a.46.46,0,0,0,0-.2h0A13.35,13.35,0,0,1,6.37.23Z"/><path class="cls-2" d="M2.07.27a1.36,1.36,0,0,0,.2.5,1,1,0,0,0-.3.42H2a.35.35,0,0,0-.19-.06h0L2.07.27Z"/><path class="cls-2" d="M1.92,1.44a.34.34,0,0,1,0,.46.33.33,0,0,1-.46,0,.32.32,0,0,1,0-.45.33.33,0,0,1,.45,0Z"/><path class="cls-2" d="M1.3.72a.8.8,0,0,1,.19.45.51.51,0,0,0-.23.16L.26.25a1.34,1.34,0,0,1,1,.47Z"/><path class="cls-3" d="M35,12h-.59l-.11-1.56h0a3.1,3.1,0,0,1-3,1.74c-2.7,0-4-2.12-4-4.46s1.34-4.46,4-4.46a3.35,3.35,0,0,1,3.57,2.84H34.1a2.68,2.68,0,0,0-2.76-2.15c-2.27,0-3.23,1.9-3.23,3.77s1,3.76,3.23,3.76a2.84,2.84,0,0,0,3-3.14H31.39V7.61H35Z"/><path class="cls-3" d="M36.9,9.07a2.19,2.19,0,0,0,2,2.43,1.88,1.88,0,0,0,2-1.58h.75a2.53,2.53,0,0,1-2.7,2.22c-2,0-2.79-1.51-2.79-3.27S37,5.59,38.93,5.59s2.79,1.74,2.73,3.48Zm4-.64a2.07,2.07,0,0,0-2-2.2,2.19,2.19,0,0,0-2,2.2Z"/><path class="cls-3" d="M42.67,5.77h.75V6.84h0a2.08,2.08,0,0,1,2-1.25c1.74,0,2.26.91,2.26,2.39v4h-.75V8.1c0-1.07-.35-1.87-1.57-1.87a2,2,0,0,0-1.95,2.12V12h-.75Z"/><path class="cls-3" d="M49.57,9.07a2.19,2.19,0,0,0,2,2.43,1.88,1.88,0,0,0,1.94-1.58h.76a2.54,2.54,0,0,1-2.7,2.22c-2,0-2.8-1.51-2.8-3.27s.83-3.28,2.8-3.28,2.78,1.74,2.72,3.48Zm4-.64a2.07,2.07,0,0,0-2-2.2,2.19,2.19,0,0,0-2,2.2Z"/><path class="cls-3" d="M55.35,5.77h.7V7.22h0a2.29,2.29,0,0,1,2.34-1.53v.75a2.13,2.13,0,0,0-2.3,2.22V12h-.76Z"/><path class="cls-3" d="M59.06,7.67c.07-1.46,1.09-2.08,2.51-2.08,1.09,0,2.28.34,2.28,2v3.29a.39.39,0,0,0,.44.45.86.86,0,0,0,.24,0v.63A1.89,1.89,0,0,1,64,12c-.77,0-.89-.43-.89-1.08h0a2.37,2.37,0,0,1-2.26,1.26c-1.14,0-2.07-.56-2.07-1.81,0-1.74,1.69-1.8,3.32-2,.62-.07,1-.16,1-.84,0-1-.73-1.27-1.62-1.27s-1.63.43-1.65,1.44Zm4,.91h0c-.1.18-.44.24-.64.27-1.28.23-2.88.22-2.88,1.43a1.28,1.28,0,0,0,1.38,1.22,2,2,0,0,0,2.16-1.94Z"/><path class="cls-3" d="M65.37,3.4h.76V12h-.76Z"/><path class="cls-3" d="M67.59,3.4h.76V4.61h-.76Zm0,2.37h.76V12h-.76Z"/><path class="cls-3" d="M71,5.77h1.26v.64H71v4.17c0,.49.07.78.61.82.22,0,.43,0,.65,0V12l-.67,0c-1,0-1.36-.33-1.35-1.39V6.41H69.16V5.77h1.08V3.91H71Z"/><path class="cls-3" d="M73.28,7.67c.07-1.46,1.09-2.08,2.51-2.08,1.09,0,2.27.34,2.27,2v3.29a.4.4,0,0,0,.45.45.86.86,0,0,0,.24,0v.63a1.89,1.89,0,0,1-.49.05c-.77,0-.89-.43-.89-1.08h0a2.35,2.35,0,0,1-2.25,1.26C74,12.14,73,11.58,73,10.33c0-1.74,1.69-1.8,3.32-2,.62-.07,1-.16,1-.84,0-1-.73-1.27-1.62-1.27S74.06,6.66,74,7.67Zm4,.91h0c-.09.18-.43.24-.63.27-1.28.23-2.88.22-2.88,1.43a1.28,1.28,0,0,0,1.38,1.22,2,2,0,0,0,2.16-1.94Z"/><path class="cls-3" d="M80.78,5.77H82v.64H80.78v4.17c0,.49.07.78.61.82.22,0,.43,0,.65,0V12l-.67,0c-1,0-1.36-.33-1.35-1.39V6.41H78.94V5.77H80V3.91h.76Z"/><path class="cls-3" d="M91.91,12h-.69V10.78h0A2.44,2.44,0,0,1,89,12.14c-1.89,0-2.79-1.52-2.79-3.27S87.1,5.59,89,5.59A2.2,2.2,0,0,1,91.13,7h0V3.4h.75ZM89,11.5c1.6,0,2.17-1.35,2.17-2.63S90.59,6.23,89,6.23c-1.44,0-2,1.35-2,2.64S87.55,11.5,89,11.5Z"/><path class="cls-3" d="M93.8,9.07a2.19,2.19,0,0,0,2,2.43,1.88,1.88,0,0,0,1.94-1.58h.76a2.54,2.54,0,0,1-2.7,2.22c-2,0-2.8-1.51-2.8-3.27s.83-3.28,2.8-3.28,2.78,1.74,2.72,3.48Zm4-.64a2.07,2.07,0,0,0-2-2.2,2.19,2.19,0,0,0-2,2.2Z"/><path class="cls-3" d="M109.32,6a2.59,2.59,0,0,0-2.62-2.08c-2.27,0-3.23,1.9-3.23,3.77s1,3.76,3.23,3.76a2.79,2.79,0,0,0,2.74-2.74h.82a3.49,3.49,0,0,1-3.56,3.44c-2.7,0-4-2.12-4-4.46s1.35-4.46,4-4.46A3.28,3.28,0,0,1,110.14,6Z"/><path class="cls-3" d="M111.29,7.67c.08-1.46,1.1-2.08,2.51-2.08,1.09,0,2.28.34,2.28,2v3.29a.39.39,0,0,0,.44.45.8.8,0,0,0,.24,0v.63a1.8,1.8,0,0,1-.49.05c-.77,0-.89-.43-.89-1.08h0a2.37,2.37,0,0,1-2.26,1.26c-1.13,0-2.07-.56-2.07-1.81,0-1.74,1.69-1.8,3.32-2,.63-.07,1-.16,1-.84,0-1-.73-1.27-1.62-1.27s-1.63.43-1.65,1.44Zm4,.91h0c-.1.18-.43.24-.64.27-1.28.23-2.87.22-2.87,1.43a1.28,1.28,0,0,0,1.38,1.22,2,2,0,0,0,2.15-1.94Z"/><path class="cls-3" d="M118.79,5.77h1.26v.64h-1.26v4.17c0,.49.08.78.62.82.21,0,.43,0,.64,0V12l-.67,0c-1,0-1.35-.33-1.34-1.39V6.41H117V5.77H118V3.91h.75Z"/><path class="cls-3" d="M121.07,7.67c.08-1.46,1.1-2.08,2.51-2.08,1.09,0,2.28.34,2.28,2v3.29a.39.39,0,0,0,.44.45.8.8,0,0,0,.24,0v.63a1.89,1.89,0,0,1-.49.05c-.77,0-.89-.43-.89-1.08h0a2.37,2.37,0,0,1-2.26,1.26c-1.13,0-2.07-.56-2.07-1.81,0-1.74,1.69-1.8,3.32-2,.63-.07,1-.16,1-.84,0-1-.73-1.27-1.62-1.27s-1.63.43-1.65,1.44Zm4,.91h0c-.1.18-.43.24-.64.27-1.28.23-2.87.22-2.87,1.43a1.28,1.28,0,0,0,1.37,1.22,2,2,0,0,0,2.16-1.94Z"/><path class="cls-3" d="M127.39,3.4h.75V12h-.75Z"/><path class="cls-3" d="M134.61,12h-.7V10.84h0a2.31,2.31,0,0,1-2.14,1.3c-1.56,0-2.17-.91-2.17-2.35v-4h.76v4c0,1.12.45,1.7,1.65,1.7s1.86-1.22,1.86-2.48V5.77h.76Z"/><path class="cls-3" d="M136,5.77h.75V6.84h0a2.08,2.08,0,0,1,2-1.25c1.74,0,2.27.91,2.27,2.39v4h-.75V8.1c0-1.07-.35-1.87-1.58-1.87a2,2,0,0,0-1.94,2.12V12H136Z"/><path class="cls-3" d="M141.79,5.77h.8l2,5.28,1.91-5.28h.75l-2.69,7.14c-.43,1-.68,1.34-1.63,1.34a1.78,1.78,0,0,1-.57-.06v-.64a2.4,2.4,0,0,0,.51.07c.68,0,.83-.4,1.08-1l.27-.7Z"/><path class="cls-3" d="M148,7.67c.07-1.46,1.09-2.08,2.5-2.08,1.09,0,2.28.34,2.28,2v3.29a.4.4,0,0,0,.45.45.93.93,0,0,0,.24,0v.63a1.93,1.93,0,0,1-.5.05c-.76,0-.88-.43-.88-1.08h0a2.37,2.37,0,0,1-2.25,1.26c-1.14,0-2.08-.56-2.08-1.81,0-1.74,1.69-1.8,3.32-2,.63-.07,1-.16,1-.84,0-1-.74-1.27-1.62-1.27s-1.63.43-1.66,1.44Zm4,.91h0c-.09.18-.43.24-.63.27-1.29.23-2.88.22-2.88,1.43a1.28,1.28,0,0,0,1.38,1.22A2,2,0,0,0,152,9.56Z"/><path class="cls-3" d="M30,15.4h1.93L35.14,24h-2l-.65-1.91H29.33L28.66,24h-1.9Zm-.18,5.25h2.22L31,17.51h0Z"/><path class="cls-3" d="M41.67,23.56c0,1-.36,2.75-3.22,2.75-1.22,0-2.65-.57-2.73-2h1.69a1.15,1.15,0,0,0,1.27.85c1,0,1.38-.65,1.37-1.53v-.82h0a2.11,2.11,0,0,1-1.86,1c-1.86,0-2.65-1.41-2.65-3.12s.92-3.07,2.66-3.07a1.94,1.94,0,0,1,1.85,1h0v-.83h1.62Zm-1.62-2.78c0-1-.35-1.91-1.45-1.91s-1.38.84-1.38,1.77.33,1.86,1.38,1.86A1.53,1.53,0,0,0,40.05,20.78Z"/><path class="cls-3" d="M44.44,21.27c.05,1.08.58,1.57,1.53,1.57a1.41,1.41,0,0,0,1.34-.8h1.5a2.79,2.79,0,0,1-2.9,2.09,3,3,0,0,1-3.17-3.26,3.11,3.11,0,0,1,3.17-3.28c2.11,0,3.13,1.78,3,3.68Zm-.73-6h1.88L46.75,17H45.56Zm3.5,4.9c-.15-.86-.52-1.32-1.35-1.32a1.35,1.35,0,0,0-1.42,1.32Z"/><path class="cls-3" d="M49.93,17.76h1.62v.86h0a2.23,2.23,0,0,1,1.9-1c1.81,0,2.26,1,2.26,2.56V24H54v-3.5c0-1-.3-1.53-1.09-1.53s-1.32.52-1.32,1.78V24h-1.7Z"/><path class="cls-3" d="M61.26,19.94A1.16,1.16,0,0,0,60,18.87c-1.1,0-1.46,1.11-1.46,2s.35,1.95,1.42,1.95a1.3,1.3,0,0,0,1.35-1.26H63a2.78,2.78,0,0,1-3,2.55A3,3,0,0,1,56.85,21,3.07,3.07,0,0,1,60,17.59a2.63,2.63,0,0,1,2.91,2.35Z"/><path class="cls-3" d="M65.68,16.8H64V15.4h1.7Zm-1.7,1h1.7V24H64Z"/><path class="cls-3" d="M67,19.67c.09-1.6,1.52-2.08,2.91-2.08,1.23,0,2.72.28,2.72,1.76v3.23A3.12,3.12,0,0,0,72.81,24H71.08a2.46,2.46,0,0,1-.12-.6,2.86,2.86,0,0,1-2.09.77c-1.17,0-2.11-.59-2.11-1.86s1.06-1.74,2.11-1.88,2-.12,2-.82-.5-.84-1.1-.84-1.07.27-1.13.94Zm3.93,1.26a3.5,3.5,0,0,1-1.42.36c-.52.1-1,.28-1,.91s.49.79,1,.79a1.27,1.27,0,0,0,1.38-1.43Z"/><path class="cls-3" d="M81.68,23.17h0a2.05,2.05,0,0,1-1.88,1c-1.87,0-2.78-1.61-2.78-3.32s.92-3.22,2.74-3.22a2.15,2.15,0,0,1,1.84.92h0V15.4H83.3V24H81.68Zm-1.49-4.3c-1.12,0-1.5,1-1.5,2s.44,2,1.5,2,1.46-1,1.46-2S81.29,18.87,80.19,18.87Z"/><path class="cls-3" d="M86,21.27c0,1.08.57,1.57,1.52,1.57a1.41,1.41,0,0,0,1.34-.8h1.5a2.79,2.79,0,0,1-2.9,2.09,3,3,0,0,1-3.17-3.26,3.12,3.12,0,0,1,3.17-3.28c2.11,0,3.13,1.78,3,3.68Zm2.77-1.08c-.16-.86-.53-1.32-1.36-1.32A1.33,1.33,0,0,0,86,20.19Z"/><path class="cls-3" d="M100.7,18.28a1.85,1.85,0,0,0-1.88-1.5c-1.69,0-2.32,1.43-2.32,2.93s.63,2.87,2.32,2.87a1.93,1.93,0,0,0,2-1.92h1.82a3.61,3.61,0,0,1-3.77,3.5,4.13,4.13,0,0,1-4.21-4.45c0-2.54,1.56-4.52,4.21-4.52a3.48,3.48,0,0,1,3.7,3.09Z"/><path class="cls-3" d="M105.45,16.8h-1.7V15.4h1.7Zm-1.7,1h1.7V24h-1.7Z"/><path class="cls-3" d="M106.79,15.4h1.71v3.11h0a2.31,2.31,0,0,1,2-.92c1.23,0,2.56,1,2.56,3.26s-1.33,3.28-2.56,3.28a2.15,2.15,0,0,1-2-1h0V24h-1.62Zm3.1,3.47c-1,0-1.45.95-1.45,2s.44,2,1.45,2,1.45-.94,1.45-2S110.9,18.87,109.89,18.87Z"/><path class="cls-3" d="M115.53,21.27c0,1.08.58,1.57,1.52,1.57a1.41,1.41,0,0,0,1.35-.8h1.5A2.8,2.8,0,0,1,117,24.13a3,3,0,0,1-3.16-3.26A3.11,3.11,0,0,1,117,17.59c2.11,0,3.13,1.78,3,3.68Zm2.77-1.08c-.16-.86-.53-1.32-1.35-1.32a1.34,1.34,0,0,0-1.42,1.32Z"/><path class="cls-3" d="M121,17.76h1.62v1.15h0a2.19,2.19,0,0,1,2-1.32,1.51,1.51,0,0,1,.37.06v1.58a3.71,3.71,0,0,0-.61-.06c-1.25,0-1.68.9-1.68,2V24H121Z"/><path class="cls-3" d="M127,22c0,.74.64,1,1.31,1,.49,0,1.11-.19,1.11-.79s-.7-.7-1.93-1c-1-.22-2-.57-2-1.66,0-1.58,1.36-2,2.7-2s2.6.46,2.73,2h-1.62c-.05-.66-.55-.84-1.16-.84-.39,0-1,.07-1,.58s1,.69,1.93.92,2,.59,2,1.74c0,1.63-1.42,2.16-2.83,2.16s-2.85-.54-2.92-2.18Z"/><path class="cls-3" d="M133.53,21.27c.05,1.08.57,1.57,1.52,1.57a1.41,1.41,0,0,0,1.35-.8h1.5A2.8,2.8,0,0,1,135,24.13a3,3,0,0,1-3.16-3.26A3.11,3.11,0,0,1,135,17.59c2.11,0,3.13,1.78,3,3.68Zm2.77-1.08c-.16-.86-.53-1.32-1.36-1.32a1.34,1.34,0,0,0-1.41,1.32Z"/><path class="cls-3" d="M145,23.56c0,1-.36,2.75-3.21,2.75-1.22,0-2.65-.57-2.73-2h1.69a1.14,1.14,0,0,0,1.27.85c.95,0,1.38-.65,1.37-1.53v-.82h0a2.08,2.08,0,0,1-1.86,1c-1.86,0-2.65-1.41-2.65-3.12s.93-3.07,2.66-3.07a1.93,1.93,0,0,1,1.85,1h0v-.83H145Zm-1.61-2.78c0-1-.35-1.91-1.46-1.91s-1.38.84-1.38,1.77.34,1.86,1.38,1.86A1.53,1.53,0,0,0,143.36,20.78Z"/><path class="cls-3" d="M152.16,24h-1.62V23.1h0a2.23,2.23,0,0,1-1.9,1c-1.81,0-2.26-1-2.26-2.56V17.76h1.7v3.5c0,1,.3,1.52,1.09,1.52s1.32-.51,1.32-1.77V17.76h1.7Z"/><path class="cls-3" d="M153.46,17.76h1.62v1.15h0a2.21,2.21,0,0,1,2-1.32,1.59,1.59,0,0,1,.38.06v1.58a3.72,3.72,0,0,0-.62-.06c-1.24,0-1.68.9-1.68,2V24h-1.7Z"/><path class="cls-3" d="M159.32,21.27c0,1.08.57,1.57,1.52,1.57a1.4,1.4,0,0,0,1.34-.8h1.5a2.79,2.79,0,0,1-2.9,2.09,3,3,0,0,1-3.17-3.26,3.12,3.12,0,0,1,3.17-3.28c2.11,0,3.13,1.78,3,3.68Zm2.77-1.08c-.16-.86-.53-1.32-1.36-1.32a1.33,1.33,0,0,0-1.41,1.32Z"/><path class="cls-3" d="M167,17.76h1.25V18.9H167V22c0,.57.14.72.72.72a2.38,2.38,0,0,0,.53-.05V24a6.33,6.33,0,0,1-1,.06c-1,0-2-.24-2-1.47V18.9h-1V17.76h1V15.9H167Z"/><path class="cls-3" d="M169,19.67c.1-1.6,1.53-2.08,2.92-2.08,1.23,0,2.72.28,2.72,1.76v3.23a3.12,3.12,0,0,0,.22,1.38h-1.73a2.46,2.46,0,0,1-.12-.6,2.86,2.86,0,0,1-2.09.77c-1.17,0-2.11-.59-2.11-1.86s1.06-1.74,2.11-1.88,2-.12,2-.82-.51-.84-1.11-.84a1,1,0,0,0-1.12.94Zm3.94,1.26a3.5,3.5,0,0,1-1.42.36c-.53.1-1,.28-1,.91s.5.79,1,.79a1.27,1.27,0,0,0,1.38-1.43Z"/><path class="cls-3" d="M178.07,17.76h1.25V18.9h-1.25V22c0,.57.15.72.72.72a2.38,2.38,0,0,0,.53-.05V24a6.33,6.33,0,0,1-1,.06c-1,0-1.95-.24-1.95-1.47V18.9h-1V17.76h1V15.9h1.7Z"/><path class="cls-3" d="M31.91,35.17h0a2.06,2.06,0,0,1-1.88,1c-1.87,0-2.79-1.61-2.79-3.32s.93-3.22,2.75-3.22a2.15,2.15,0,0,1,1.84.92h0V27.4h1.7V36H31.91Zm-1.48-4.3c-1.12,0-1.5,1-1.5,2s.44,2,1.5,2,1.46-1,1.46-2S31.53,30.87,30.43,30.87Z"/><path class="cls-3" d="M36.22,33.27c.05,1.08.58,1.57,1.53,1.57a1.41,1.41,0,0,0,1.34-.8h1.5a2.79,2.79,0,0,1-2.9,2.09,3,3,0,0,1-3.17-3.26,3.11,3.11,0,0,1,3.17-3.28c2.11,0,3.13,1.78,3,3.68ZM39,32.19c-.15-.86-.52-1.32-1.35-1.32a1.35,1.35,0,0,0-1.42,1.32Z"/><path class="cls-3" d="M50.93,30.28a1.84,1.84,0,0,0-1.87-1.5c-1.69,0-2.33,1.43-2.33,2.93s.64,2.87,2.33,2.87A1.92,1.92,0,0,0,51,32.66h1.83a3.61,3.61,0,0,1-3.77,3.5,4.13,4.13,0,0,1-4.21-4.45c0-2.54,1.56-4.52,4.21-4.52a3.49,3.49,0,0,1,3.7,3.09Z"/><path class="cls-3" d="M53.86,31.67c.1-1.6,1.53-2.08,2.92-2.08,1.23,0,2.72.28,2.72,1.76v3.23A3.12,3.12,0,0,0,59.72,36H58a2.46,2.46,0,0,1-.12-.6,2.86,2.86,0,0,1-2.09.77c-1.17,0-2.11-.59-2.11-1.86s1.06-1.74,2.11-1.88,2-.12,2-.82-.51-.84-1.11-.84a1,1,0,0,0-1.12.94Zm3.94,1.26a3.5,3.5,0,0,1-1.42.36c-.53.1-1,.28-1,.91s.5.79,1.05.79a1.27,1.27,0,0,0,1.38-1.43Z"/><path class="cls-3" d="M63,29.76h1.25V30.9H63V34c0,.57.15.72.72.72a2.38,2.38,0,0,0,.53,0V36a6.33,6.33,0,0,1-1,.06c-1,0-1.95-.24-1.95-1.47V30.9h-1V29.76h1V27.9H63Z"/><path class="cls-3" d="M65,31.67c.09-1.6,1.52-2.08,2.91-2.08,1.24,0,2.72.28,2.72,1.76v3.23A3.12,3.12,0,0,0,70.83,36H69.1a2.46,2.46,0,0,1-.12-.6,2.86,2.86,0,0,1-2.09.77c-1.17,0-2.11-.59-2.11-1.86s1.06-1.74,2.11-1.88,2-.12,2-.82-.5-.84-1.1-.84-1.07.27-1.13.94Zm3.93,1.26a3.5,3.5,0,0,1-1.42.36c-.52.1-1,.28-1,.91s.49.79,1,.79a1.27,1.27,0,0,0,1.38-1.43Z"/><path class="cls-3" d="M72,27.4h1.71V36H72Z"/><path class="cls-3" d="M80.85,36H79.23V35.1h0a2.21,2.21,0,0,1-1.89,1c-1.81,0-2.27-1-2.27-2.56V29.76h1.7v3.5c0,1,.3,1.52,1.1,1.52s1.31-.51,1.31-1.77V29.76h1.71Z"/><path class="cls-3" d="M82.15,29.76h1.62v.86h0a2.23,2.23,0,0,1,1.9-1c1.81,0,2.26,1,2.26,2.56V36h-1.7v-3.5c0-1-.3-1.53-1.09-1.53s-1.32.52-1.32,1.78V36h-1.7Z"/><path class="cls-3" d="M92.32,36.74a1.94,1.94,0,0,1-2.13,1.4,9.24,9.24,0,0,1-1-.06v-1.4c.33,0,.66.07,1,.06a.8.8,0,0,0,.59-1.16l-2.19-5.82h1.83L91.77,34h0l1.36-4.24h1.76Z"/><path class="cls-3" d="M95.42,31.67c.09-1.6,1.52-2.08,2.91-2.08,1.24,0,2.73.28,2.73,1.76v3.23a3.29,3.29,0,0,0,.21,1.38H99.54a3,3,0,0,1-.12-.6,2.85,2.85,0,0,1-2.08.77c-1.18,0-2.11-.59-2.11-1.86s1-1.74,2.11-1.88,2-.12,2-.82-.5-.84-1.1-.84-1.07.27-1.13.94Zm3.93,1.26a3.5,3.5,0,0,1-1.41.36c-.53.1-1,.28-1,.91s.49.79,1,.79a1.27,1.27,0,0,0,1.38-1.43Z"/></g></g></svg>