<svg xmlns="http://www.w3.org/2000/svg" viewBox="0 0 107.05 97.69"><title>ICO Negre</title><g id="Layer_2" data-name="Layer 2"><g id="Capa_1" data-name="Capa 1"><path d="M28.64,0A29.47,29.47,0,0,1,48.32,7.66c1.18,1,1.17,1.14.08,2.24L27.19,31.1c-1.19,1.19-1.19,1.2,0,2.41,2,1.94,3.9,3.9,5.88,5.82a12.48,12.48,0,0,0,17.6,0c3.31-3.24,6.56-6.55,9.84-9.82,3-3,6.74-3.1,9.77-.16Q82.41,41.11,94.44,53a5.43,5.43,0,0,1,.07,8c-2.25,2.22-5.47,2.14-7.86-.25q-8.91-8.89-17.78-17.81c-1.15-1.14-1.15-1.14-2.32,0l-1.87,1.87c-1.08,1.09-1.08,1.09,0,2.15L77,59.46c1.77,1.8,3.6,3.55,5.3,5.42a5.72,5.72,0,0,1,.22,8,5.37,5.37,0,0,1-8,.19q-7.82-7.78-15.58-15.61c-.9-.9-1.81-1.77-2.67-2.69-.57-.61-1-.67-1.61,0-.78.84-1.58,1.67-2.44,2.43s-.69,1.16,0,1.87c4.85,4.89,9.67,9.83,14.5,14.75.94.95,1.89,1.9,2.82,2.86a5.38,5.38,0,0,1-2,8.62c-.86.32-1.17.06-1.25-.83C65.61,78,61.62,74.11,55.27,73.8a1.23,1.23,0,0,1-1.35-1.06c-1.36-5.39-4.76-8.26-10.3-8.67a1.81,1.81,0,0,1-1.89-1.55c-1.08-3.75-3.71-5.86-7.47-6.65A7.52,7.52,0,0,0,33,55.7c-.89,0-1.31-.36-1.35-1.29-.27-5.51-5.47-9.77-10.11-10.14a10.51,10.51,0,0,0-8.3,2.9c-.95.89-1.88,1.81-2.78,2.75-.54.55-1,.6-1.52,0-8-8.3-10.9-18.09-7.63-29.15S12.17,2.92,23.5.46A14.29,14.29,0,0,1,25.55.15C26.58.07,27.61.05,28.64,0Z"/><path d="M76,0c16.82,0,29,10.57,30.77,24.75A28.61,28.61,0,0,1,99.5,48.35c-1,1.14-1,1.12-2.13,0Q86,37,74.67,25.62c-5.54-5.55-12.87-5.53-18.42,0-3.09,3.08-6.16,6.18-9.25,9.26s-6.79,3.08-9.9.19c-.67-.62-1.3-1.31-2-1.9s-.8-1.12-.07-1.77c.57-.5,1.08-1.08,1.62-1.63,7-7,13.93-14.11,21-21.1C63.39,2.94,70.43.12,76,0Z"/><path d="M12.53,67.6a4.87,4.87,0,0,1-3.9-7.72,18.2,18.2,0,0,1,1.9-2.13C12.76,55.48,15,53.23,17.25,51a4.92,4.92,0,1,1,7,6.94c-2.71,2.75-5.46,5.47-8.19,8.2A4.49,4.49,0,0,1,12.53,67.6Z"/><path d="M47.49,97.69c-3.39,0-5.91-3.09-4.94-6.13a4.31,4.31,0,0,1,1-1.61C46,87.52,48.5,85.13,51,82.72a16.2,16.2,0,0,0,1.32-1.43A4.56,4.56,0,0,1,59,80.58a4.8,4.8,0,0,1,.76,6.86c-.89,1-1.92,2-2.89,3L51,96.24A4.58,4.58,0,0,1,47.49,97.69Z"/><path d="M44.19,69.91a4.44,4.44,0,0,1,3.86,2.85,4.57,4.57,0,0,1-.84,5.34Q43,82.47,38.6,86.7a4.67,4.67,0,0,1-5.53.82,4.46,4.46,0,0,1-1.54-7.16c2.34-2.48,4.8-4.84,7.21-7.25a11.17,11.17,0,0,0,1.38-1.54C41,70.33,42.16,69.91,44.19,69.91Z"/><path d="M36.49,65.13a4.21,4.21,0,0,1-1.26,3.21c-2.86,2.92-5.67,5.89-8.66,8.68a4.89,4.89,0,0,1-8.24-2.57,3.65,3.65,0,0,1,1.2-3.69q4.81-4.59,9.4-9.4a3.51,3.51,0,0,1,3.48-1.16A4.8,4.8,0,0,1,36.49,65.13Z"/></g></g></svg>