<svg xmlns="http://www.w3.org/2000/svg" viewBox="0 0 519.59 149.4"><defs><style>.cls-1{fill:#8ebcf9;}</style></defs><title>Asset 1</title><g id="Layer_2" data-name="Layer 2"><g id="Capa_1" data-name="Capa 1"><path class="cls-1" d="M519.59,42.8v15H499V122a18.7,18.7,0,0,0,.5,4.8,5,5,0,0,0,1.9,2.8,8.33,8.33,0,0,0,3.9,1.3,56.7,56.7,0,0,0,6.5.3h7.8v15h-13a61,61,0,0,1-11.3-.9,16.6,16.6,0,0,1-7.6-3.3,14.12,14.12,0,0,1-4.3-6.8,39.38,39.38,0,0,1-1.4-11.6V57.8h-17.6v-15H482v-31h17v31Zm-85.8,103.4V129.8h-.4a34.74,34.74,0,0,1-13.8,14.1q-8.4,4.5-19.8,4.5-10.2,0-17-2.7a27.16,27.16,0,0,1-11-7.7,28.91,28.91,0,0,1-5.9-11.9,64.16,64.16,0,0,1-1.7-15.3v-68h17v70q0,9.6,5.6,15.2t15.4,5.6a34.65,34.65,0,0,0,13.5-2.4,25.32,25.32,0,0,0,9.5-6.8,29.4,29.4,0,0,0,5.7-10.3,41.76,41.76,0,0,0,1.9-12.9V42.8h17V146.2Zm-96,0h-17V3.4h17ZM276.4,110.12a19.07,19.07,0,0,1-1.8,7.66,22.79,22.79,0,0,1-5.6,7.56,30.32,30.32,0,0,1-9.8,5.77,40.36,40.36,0,0,1-14.4,2.29,35.15,35.15,0,0,1-7.6-.79,18.78,18.78,0,0,1-6.3-2.59,14.1,14.1,0,0,1-4.4-4.68,13.62,13.62,0,0,1-1.7-7.06q0-6.37,2.9-10.06a18.93,18.93,0,0,1,7.5-5.67,42.75,42.75,0,0,1,10.4-2.88q5.79-.9,11.5-1.6T268,96.28a21.33,21.33,0,0,0,8.4-3.48ZM304,132.6a20.81,20.81,0,0,1-5.2.8q-4,0-4.7-2.79a39.5,39.5,0,0,1-.7-8.79V68.74q0-9-3.4-14.57a24,24,0,0,0-9-8.68,36.58,36.58,0,0,0-12.5-4.09,96.38,96.38,0,0,0-13.9-1,72.31,72.31,0,0,0-16.5,1.8,40.29,40.29,0,0,0-13.7,5.9,30.3,30.3,0,0,0-9.6,10.7,36.63,36.63,0,0,0-4,16.2h17q.6-11.4,7.8-15.5t18-4.1a56,56,0,0,1,8.1.6,22,22,0,0,1,7.4,2.4,14.38,14.38,0,0,1,5.4,5.2,17,17,0,0,1,2.1,9c0,3.2-.94,5.63-2.8,7.3a18.52,18.52,0,0,1-7.6,3.8,74.1,74.1,0,0,1-11.1,2q-6.3.7-13.3,2.1-6.6,1.2-12.9,3a36.2,36.2,0,0,0-11.2,5.3,26.14,26.14,0,0,0-7.9,9.1q-3,5.6-3,14.4a30,30,0,0,0,2.7,13.3,24,24,0,0,0,7.3,8.9,30.87,30.87,0,0,0,10.9,5,56.3,56.3,0,0,0,33.4-2.1,40.73,40.73,0,0,0,16.3-12.1q0,8.4,3.9,12.1t10.5,3.7q7.8,0,12.2-2.6ZM157.1,22.9Q147.59,16,132.8,16A58,58,0,0,0,121,17.2a31.23,31.23,0,0,0-10.3,4,21.05,21.05,0,0,0-7.2,7.5,23.17,23.17,0,0,0-2.7,11.7,14.88,14.88,0,0,0,3.9,10.7,28.86,28.86,0,0,0,10.4,6.7,87.27,87.27,0,0,0,14.7,4.3q8.19,1.69,16.7,3.7t16.7,4.7a55.18,55.18,0,0,1,14.7,7.3,34.78,34.78,0,0,1,10.4,11.6q3.9,7,3.9,17.6,0,11.4-5.1,19.5A42,42,0,0,1,174,139.7a57,57,0,0,1-17.9,7.4,87,87,0,0,1-19.7,2.3,83.71,83.71,0,0,1-22.7-3,55.94,55.94,0,0,1-18.8-9.1,43.16,43.16,0,0,1-12.8-15.6q-4.71-9.49-4.7-22.5h18a32.17,32.17,0,0,0,3.5,15.5,31.82,31.82,0,0,0,9.2,10.7,38.73,38.73,0,0,0,13.3,6.2,61.11,61.11,0,0,0,15.6,2,71,71,0,0,0,12.9-1.2,38.15,38.15,0,0,0,11.7-4.1,23.4,23.4,0,0,0,8.4-7.9q3.19-5,3.2-12.8,0-7.39-3.9-12a28.61,28.61,0,0,0-10.4-7.5,76.67,76.67,0,0,0-14.7-4.7q-8.2-1.8-16.7-3.7t-16.7-4.4a60.58,60.58,0,0,1-14.7-6.6A31.56,31.56,0,0,1,85.7,58.1q-3.9-6.49-3.9-16.3,0-10.8,4.4-18.7a38.37,38.37,0,0,1,11.7-13,52.52,52.52,0,0,1,16.6-7.6A73.07,73.07,0,0,1,133.6,0,76.47,76.47,0,0,1,154,2.6a46.31,46.31,0,0,1,16.5,8.2,39.6,39.6,0,0,1,11.2,14.1q4.1,8.51,4.5,20.3h-18q-1.6-15.41-11.1-22.3M73.6,0,14.4,149.4H0L59,0Z"/></g></g></svg>