<svg xmlns="http://www.w3.org/2000/svg" id="Capa_1" height="512" viewBox="0 0 512 512" width="512"><g id="XMLID_772_"><path id="XMLID_3306_" d="m166 330h64v64h-64z" fill="#bedaff"></path><path id="XMLID_3305_" d="m346 330h-296c-22.091 0-40-17.909-40-40v-200c0-22.091 17.909-40 40-40h296c22.091 0 40 17.909 40 40v200c0 22.091-17.909 40-40 40z" fill="#ffd88e"></path><path id="XMLID_3304_" d="m10 266v24c0 22.091 17.909 40 40 40h296c22.091 0 40-17.909 40-40v-24z" fill="#bedaff"></path><path id="XMLID_3300_" d="m198 178c-19.882 0-36-16.118-36-36v-16c0-19.882 16.118-36 36-36 19.882 0 36 16.118 36 36v16c0 19.882-16.118 36-36 36z" fill="#f4c6af"></path><path id="XMLID_3299_" d="m198 178c-41.974 0-76 34.026-76 76v12h152v-12c0-41.974-34.026-76-76-76z" fill="#d5ea7a"></path><path id="XMLID_3295_" d="m454.008 146h-128.985c-12.983 0-23.508-10.525-23.508-23.508v-88.984c.001-12.983 10.525-23.508 23.508-23.508h128.984c12.983 0 23.508 10.525 23.508 23.508v88.985c.001 12.982-10.524 23.507-23.507 23.507z" fill="#ff7a7a"></path><path id="XMLID_3227_" d="m368.091 362c-31.631 0-57.273-25.642-57.273-57.273v-25.455c0-31.631 25.642-57.273 57.273-57.273 31.631 0 57.273 25.642 57.273 57.273v25.455c0 31.631-25.642 57.273-57.273 57.273z" fill="#c68966"></path><path id="XMLID_3226_" d="m395.5 362h-54.818c-58.818 0-106.5 47.682-106.5 106.5v33.5h267.818v-33.5c0-58.818-47.682-106.5-106.5-106.5z" fill="#d5ea7a"></path><g id="XMLID_57_"><path id="XMLID_58_" d="m371.236 101.994c1.547.893 3.273 1.34 5 1.34s3.453-.447 5-1.34l26.558-15.333c3.094-1.786 5-5.087 5-8.66s-1.906-6.874-5-8.66l-26.558-15.333c-3.094-1.787-6.905-1.786-10 0-3.094 1.786-5 5.087-5 8.66v30.667c0 3.571 1.906 6.873 5 8.659z"></path><path id="XMLID_87_" d="m414.322 353.528c12.944-12.268 21.042-29.601 21.042-48.801v-25.455c0-27.14-16.165-50.561-39.364-61.186v-62.086h58.008c18.476 0 33.508-15.032 33.508-33.508v-88.984c0-18.476-15.032-33.508-33.508-33.508h-128.985c-18.476 0-33.508 15.032-33.508 33.508v6.492h-241.515c-27.57 0-50 22.43-50 50v200c0 27.57 22.43 50 50 50h106v44h-31.667c-5.523 0-10 4.477-10 10s4.477 10 10 10h119.382c-12.333 18.48-19.534 40.664-19.534 64.5v33.5c0 5.523 4.477 10 10 10h88.91c5.523 0 10-4.477 10-10s-4.477-10-10-10h-78.91v-23.5c0-53.21 43.29-96.5 96.5-96.5h54.819c53.21 0 96.5 43.29 96.5 96.5v23.5h-78.909c-5.523 0-10 4.477-10 10s4.477 10 10 10h88.909c5.523 0 10-4.477 10-10v-33.5c0-57.831-42.359-105.947-97.678-114.972zm1.042-74.256v25.455c0 26.066-21.207 47.272-47.273 47.272s-47.272-21.207-47.272-47.272v-25.455c0-26.066 21.207-47.272 47.272-47.272 26.066 0 47.273 21.207 47.273 47.272zm-103.848-245.764c0-7.448 6.06-13.508 13.508-13.508h128.984c7.448 0 13.508 6.06 13.508 13.508v88.984c0 7.448-6.06 13.508-13.508 13.508h-128.985c-7.448 0-13.508-6.06-13.508-13.508v-88.984zm-261.516 26.492h241.516v62.492c0 18.476 15.032 33.508 33.508 33.508h50.976v56.481c-2.596-.306-5.232-.481-7.909-.481-28.917 0-53.627 18.341-63.118 44h-20.973v-2c0-35.89-22.107-66.7-53.412-79.569 8.284-8.323 13.412-19.789 13.412-32.431v-16c0-25.364-20.636-46-46-46s-46 20.636-46 46v16c0 12.642 5.128 24.108 13.412 32.431-31.305 12.869-53.412 43.679-53.412 79.569v2h-92v-166c0-16.542 13.458-30 30-30zm122 82v-16c0-14.336 11.664-26 26-26s26 11.664 26 26v16c0 14.336-11.664 26-26 26s-26-11.664-26-26zm26 46c36.393 0 66 29.607 66 66v2h-132v-2c0-36.393 29.607-66 66-66zm-178 102v-14h280.901c-.052 1.085-.083 2.175-.083 3.272v25.455c0 5.254.625 10.362 1.77 15.272h-252.588c-16.542.001-30-13.457-30-29.999zm156 94v-44h44v44zm84.565 0h-20.565v-44h70.838c3.079 4.979 6.793 9.521 11.021 13.528-23.53 3.839-44.716 14.746-61.294 30.472z"></path><path id="XMLID_1024_" d="m368.09 492c-2.63 0-5.21 1.07-7.07 2.93s-2.93 4.44-2.93 7.07 1.07 5.21 2.93 7.07 4.44 2.93 7.07 2.93 5.21-1.07 7.07-2.93 2.93-4.44 2.93-7.07-1.07-5.21-2.93-7.07-4.43-2.93-7.07-2.93z"></path></g></g></svg>