<svg xmlns="http://www.w3.org/2000/svg" id="Capa_1" height="512" viewBox="0 0 512 512" width="512"><g><g><g><g><g><path d="m76.261 19.673 82.074 82.074c8.343 8.343 20.297 11.979 31.873 9.693l18.851-3.722c10.157-2.005 20.682.538 28.802 6.96l51.589 45.415-135.065 138.007-45.819-45.819c-7.245-7.245-10.994-17.276-10.276-27.498l1.859-26.476c.718-10.221-3.031-20.252-10.276-27.498l-82.374-82.374" fill="#ffcebf"></path></g></g><g><path d="m289.45 160.093-51.587-45.42c-8.122-6.415-18.652-8.961-28.805-6.95l-18.847 3.717c-11.582 2.285-23.542-1.354-31.889-9.702l-82.066-82.066-13.676 13.676 91.022 91.022c8.34 8.34 20.29 11.974 31.861 9.688l18.854-3.725c8.591-1.694 19.613 2.033 27.719 7.106 2.141 1.34 4.132 2.903 5.977 4.627l36.087 33.708z" fill="#ffb09e"></path></g><g><path d="m19.941 43.001h97.245v75.471h-97.245z" fill="#fec165" transform="matrix(-.707 .707 -.707 -.707 174.135 89.345)"></path></g><g><path d="m86.433 15.459h19.344v75.471h-19.344z" fill="#fea613" transform="matrix(-.707 .707 -.707 -.707 201.677 22.853)"></path></g></g></g><g><g><g><g><path d="m435.737 19.673-82.073 82.074c-8.344 8.343-20.297 11.979-31.873 9.693l-18.851-3.722c-10.157-2.005-20.682.538-28.802 6.96l-51.589 45.415 135.064 138.007 45.819-45.819c7.245-7.245 10.994-17.276 10.276-27.498l-1.859-26.476c-.718-10.221 3.031-20.252 10.276-27.498l82.374-82.374" fill="#f6a96c"></path></g></g><g><g><path d="m422.122 170.81c-7.246 7.246-10.99 17.273-10.277 27.5l1.867 26.476c.713 10.217-3.031 20.254-10.278 27.49l-45.826 45.826-16.169-16.52 36.723-36.422c7.578-7.578 11.502-18.066 10.749-28.744l-1.947-27.681c-.753-10.689 3.171-21.177 10.749-28.744l88.983-89.355 17.805 17.795z" fill="#ea9b58"></path></g></g><g><path d="m394.812 43.001h97.245v75.471h-97.245z" fill="#46cc8d" transform="matrix(.707 .707 -.707 .707 186.969 -289.908)"></path></g><g><path d="m456.431 68.525h25.054v75.471h-25.054z" fill="#00c27a" transform="matrix(.707 .707 -.707 .707 212.492 -300.481)"></path></g></g></g><g><g><g><g><path d="m76.261 492.327 82.074-82.074c8.343-8.343 20.297-11.979 31.873-9.693l18.851 3.722c10.157 2.005 20.682-.538 28.802-6.96l88.168-81.995-135.064-138.007-82.398 82.398c-7.245 7.246-10.994 17.276-10.276 27.498l1.859 26.476c.718 10.221-3.031 20.252-10.276 27.498l-82.375 82.374" fill="#d88a55"></path></g></g><g><path d="m326.03 315.327-88.167 82c-8.122 6.415-18.652 8.961-28.805 6.95l-18.847-3.717c-11.582-2.285-23.542 1.354-31.889 9.702l-82.066 82.066-13.676-13.677 91.022-91.022c8.34-8.34 20.29-11.974 31.861-9.688l18.854 3.725c8.591 1.694 19.613-2.033 27.719-7.106 2.141-1.34 4.132-2.903 5.977-4.627l72.667-70.288z" fill="#c57a44"></path></g><g><path d="m19.941 393.527h97.245v75.471h-97.245z" fill="#5f99d7" transform="matrix(-.707 -.707 .707 -.707 -187.904 784.692)"></path></g><g><path d="m86.433 421.069h19.344v75.471h-19.344z" fill="#3c87d0" transform="matrix(-.707 -.707 .707 -.707 -160.362 851.185)"></path></g></g></g><g><g><g><path d="m336.502 197.898c-11.243 6.019-15.051 20.293-8.299 31.112l-85.33-85.132c-7.755-7.755-20.329-7.755-28.084 0-7.04 7.04-7.667 18.039-1.925 25.811l-10.266-10.266c-7.755-7.755-20.329-7.755-28.084 0-7.755 7.755-7.755 20.329 0 28.084l31.985 31.985c-7.798-6.956-19.752-6.715-27.235.767-7.755 7.755-7.755 20.329 0 28.084l41.279 41.279c-7.072-7.072-18.537-7.072-25.609 0s-7.072 18.537 0 25.609l75.311 75.311c7.297 7.297 17.399 11.072 27.693 10.349l26.664-1.872c10.294-.723 20.396 3.052 27.693 10.349l82.958 82.958 69.25-69.25-82.655-82.655c-8.402-8.402-12.064-20.441-9.762-32.099l3.749-18.985c2.019-10.229-.542-20.829-7.01-29.006l-43.116-54.517c-6.104-9.956-18.912-13.427-29.207-7.916z" fill="#fed2a4"></path></g><g><path d="m365.704 205.815 43.124 54.515c6.46 8.179 9.024 18.784 6.999 29.01l-3.744 18.98c-2.302 11.668 1.355 23.7 9.76 32.105l82.658 82.658-13.773 13.773-91.657-91.657c-8.405-8.405-12.068-20.444-9.767-32.097l3.751-18.988c2.017-10.233-3.602-23.893-10.069-32.065l-31.056-42.462c-5.47-8.908-16.307-12.622-25.907-9.345 1.734-5.098 5.331-9.585 10.481-12.345 10.292-5.512 23.104-2.038 29.2 7.918z" fill="#ffbd86"></path></g><g><path d="m394.037 392.827h97.934v76.006h-97.934z" fill="#fe4fb7" transform="matrix(-.707 .707 -.707 -.707 1060.898 422.222)"></path></g><g><path d="m461.001 365.09h19.481v76.006h-19.481z" fill="#fe2aa8" transform="matrix(-.707 .707 -.707 -.707 1088.635 355.258)"></path></g><path d="m509.804 417.775-66.069-66.069c-2.928-2.928-7.676-2.928-10.604 0-2.929 2.928-2.929 7.676 0 10.604l7.022 7.022-58.645 58.645-23.911-23.911c-8.836-8.837-21.053-13.406-33.52-12.527l-26.663 1.872c-8.139.569-16.102-2.408-21.866-8.172l-75.311-75.311c-4.137-4.137-4.137-10.868 0-15.004 4.136-4.137 10.867-4.137 15.005 0l35.338 35.338c.183.183.373.355.569.515 1.374 1.121 3.054 1.682 4.733 1.682s3.358-.561 4.733-1.682c.196-.16.386-.332.569-.515 2.929-2.928 2.929-7.676 0-10.604l-76.617-76.617c-2.335-2.335-3.62-5.438-3.62-8.74 0-3.301 1.285-6.405 3.62-8.74 2.334-2.334 5.438-3.62 8.739-3.62 2.903 0 5.652.995 7.86 2.822l77.455 77.456c1.464 1.464 3.383 2.196 5.302 2.196s3.838-.732 5.302-2.196c.007-.007.013-.015.019-.022.007-.007.015-.013.022-.019 2.929-2.928 2.929-7.676 0-10.604l-109.45-109.368c-4.819-4.819-4.819-12.66 0-17.479 2.334-2.335 5.438-3.62 8.74-3.62 3.301 0 6.405 1.286 8.739 3.62l109.237 109.583c1.464 1.464 3.383 2.196 5.302 2.196s3.838-.732 5.302-2.196c.029-.029.054-.062.083-.091.03-.029.062-.053.091-.082 2.929-2.928 2.929-7.676 0-10.604l-98.788-98.788c-1.334-2.006-2.052-4.36-2.052-6.824 0-3.301 1.286-6.405 3.621-8.74 2.334-2.334 5.438-3.62 8.739-3.62 3.302 0 6.405 1.285 8.74 3.62l85.231 85.231c.097.097.2.181.3.272l9.391 12.27c2.517 3.288 7.223 3.913 10.512 1.397 3.288-2.517 3.914-7.223 1.397-10.512l-10.005-13.072c-2.019-3.393-2.569-7.35-1.548-11.178 1.049-3.933 3.603-7.157 7.191-9.078 6.787-3.633 15.252-1.337 19.273 5.224.156.254.327.499.512.733l43.117 54.517c5.114 6.466 7.131 14.814 5.535 22.903l-3.748 18.984c-1.811 9.17-.553 18.848 3.542 27.252 1.299 2.666 3.968 4.216 6.746 4.216 1.102 0 2.222-.244 3.279-.759 3.723-1.814 5.27-6.302 3.456-10.025-2.671-5.483-3.492-11.797-2.311-17.778l3.748-18.984c2.448-12.4-.644-25.197-8.484-35.11l-2.065-2.612c6.191-8.209 9.278-18.419 8.548-28.811l-1.859-26.477c-.566-8.058 2.386-15.957 8.098-21.67l82.374-82.374c2.929-2.928 2.929-7.676 0-10.604l-68.761-68.766c-2.928-2.928-7.676-2.928-10.604 0l-82.074 82.074c-6.588 6.588-15.978 9.442-25.118 7.639l-18.852-3.722c-12.328-2.435-25.051.641-34.906 8.435-.103.082-.205.166-.303.253l-13.183 11.605-13.183-11.605c-.099-.087-.2-.171-.303-.253-9.856-7.794-22.578-10.868-34.907-8.435l-18.851 3.722c-9.141 1.804-18.531-1.052-25.119-7.639l-82.072-82.074c-2.928-2.928-7.676-2.928-10.604 0l-68.764 68.763c-2.929 2.928-2.929 7.676 0 10.604l82.374 82.374c5.713 5.713 8.665 13.611 8.099 21.67l-1.859 26.476c-.819 11.666 3.158 23.111 10.954 31.742-7.796 8.631-11.773 20.076-10.954 31.742l1.859 26.477c.566 8.058-2.386 15.957-8.099 21.67l-82.374 82.374c-2.929 2.928-2.929 7.676 0 10.604l68.763 68.763c1.464 1.464 3.383 2.196 5.302 2.196s3.838-.732 5.302-2.196l82.074-82.074c6.588-6.588 15.979-9.446 25.118-7.639l18.852 3.722c12.327 2.436 25.051-.641 34.906-8.435.157-.124.309-.254.455-.391l14.996-13.946 6.978 6.978c8.836 8.837 21.056 13.409 33.52 12.527l26.664-1.872c8.131-.571 16.101 2.407 21.865 8.171l29.213 29.213.001.001 53.745 53.745c1.464 1.464 3.383 2.196 5.302 2.196s3.838-.732 5.302-2.196l69.25-69.25c2.928-2.928 2.928-7.676 0-10.604zm-74.067-387.498 58.158 58.158-42.762 42.762-58.158-58.158zm-156.803 90.167c6.388-4.984 14.599-6.942 22.552-5.371l18.852 3.722c14.055 2.777 28.497-1.617 38.628-11.748l23.405-23.405 58.158 58.158-23.706 23.706c-8.785 8.785-13.325 20.932-12.454 33.325l1.859 26.476c.379 5.401-.832 10.725-3.387 15.371l-30.994-39.189c-8.265-13.013-25.247-17.505-38.884-10.202-6.953 3.722-12.155 10.143-14.385 17.691l-65.645-65.645zm-260.831-32.009 58.158-58.158 42.762 42.762-58.158 58.158zm58.158 393.288-58.158-58.158 42.762-42.762 58.158 58.158zm156.727-90.109c-6.377 4.94-14.55 6.877-22.476 5.311l-18.852-3.722c-14.054-2.774-28.497 1.617-38.628 11.748l-23.405 23.405-58.158-58.158 23.706-23.706c8.785-8.785 13.325-20.932 12.454-33.325l-1.859-26.476c-.566-8.059 2.386-15.958 8.099-21.67l24.877-24.877c2.929-2.928 2.929-7.676 0-10.604-2.928-2.928-7.676-2.928-10.604 0l-15.786 15.786c-4.71-5.534-7.099-12.706-6.586-20.016l1.859-26.476c.871-12.394-3.669-24.54-12.454-33.325l-23.706-23.706 58.158-58.158 23.405 23.405c10.13 10.131 24.567 14.522 38.628 11.748l18.851-3.722c7.955-1.571 16.163.387 22.552 5.37l11.587 10.201-3.329 2.931c-3.819-1.964-8.074-3.011-12.491-3.011-7.307 0-14.177 2.846-19.344 8.012-3.241 3.241-5.568 7.153-6.853 11.422-4.208-2.535-9.039-3.889-14.078-3.889-7.307 0-14.177 2.846-19.344 8.013-9.932 9.933-10.611 25.662-2.046 36.393l-14.32 14.32c-2.929 2.928-2.929 7.676 0 10.604 2.928 2.928 7.676 2.928 10.604 0l14.195-14.195 7.077 7.077c-4.011 1.321-7.688 3.564-10.761 6.637-5.167 5.167-8.013 12.037-8.013 19.344s2.846 14.177 8.013 19.344l24.806 24.806c-3.334 1.241-6.461 3.193-9.137 5.868-9.984 9.984-9.984 26.23 0 36.214l57.721 57.721zm202.263 90.109-43.14-43.141 58.646-58.646 43.14 43.14z"></path></g></g></g></svg>